<svg id="Слой_1" data-name="Слой 1" xmlns="http://www.w3.org/2000/svg" width="150px" height="auto" viewBox="0 0 289.06 50.13"><defs><style>.cls-1{fill:#fff;}.cls-2{fill:#61d2dc;}.cls-3{opacity:0.3;}.cls-4{fill:#f2f2f2;}</style></defs><title>m_logo</title><path class="cls-1" d="M-253.18,251.58q-0.09-.39-0.3-2.16-0.18-1.47-.32-2.44a16.79,16.79,0,0,1-.59,2.3,19.61,19.61,0,0,1-1,2.34l-8.8,17.92-8.8-18.29q-0.55-1.13-1-2.18t-0.7-2.09a21.27,21.27,0,0,1-.17,2.22,24.23,24.23,0,0,1-.45,2.42l-3.61,16.57h-5l8-35.06,9.93,21.23q0.23,0.51.7,1.68t1.14,2.9a37,37,0,0,1,1.52-3.68l0.41-.92,9.7-21.21,8.13,35.06h-5.08Z" transform="translate(343.84 -228.31)"/><path class="cls-1" d="M-219.94,268.19h-5v-2.83a8.74,8.74,0,0,1-3.11,2.8,8.77,8.77,0,0,1-4.08.92,9,9,0,0,1-7.27-3.16q-2.65-3.16-2.65-8.65a12.6,12.6,0,0,1,2.71-8.42,8.82,8.82,0,0,1,7.08-3.21,8.85,8.85,0,0,1,4.56,1.11,6.54,6.54,0,0,1,2.77,3.21v-3.56h5v21.78Zm-4.85-11a8,8,0,0,0-1.57-5.26,5.42,5.42,0,0,0-4.4-1.88A5.48,5.48,0,0,0-235.2,252a8.17,8.17,0,0,0-1.62,5.39,8.17,8.17,0,0,0,1.56,5.35,5.41,5.41,0,0,0,4.41,1.88,5.41,5.41,0,0,0,4.38-2A8.17,8.17,0,0,0-224.78,257.23Z" transform="translate(343.84 -228.31)"/><path class="cls-1" d="M-208.06,249.88a7.06,7.06,0,0,1,2.13-3.19,5.15,5.15,0,0,1,3.27-1,8.64,8.64,0,0,1,2.08.25,10.1,10.1,0,0,1,2,.74l-1.79,4.23a4.61,4.61,0,0,0-1.39-.68,5.93,5.93,0,0,0-1.67-.22,3.74,3.74,0,0,0-3.56,2q-1.08,2-1.08,6.67v9.56h-5V246.36h5v3.52Z" transform="translate(343.84 -228.31)"/><path class="cls-1" d="M-175.22,266.83q0,6.39-2.55,9t-8.59,2.61a12.25,12.25,0,0,1-7.19-1.9,6,6,0,0,1-2.73-5l5.35,0a2.63,2.63,0,0,0,1.31,2.14,6.42,6.42,0,0,0,3.35.73q3.19,0,4.6-1.4t1.42-4.69l0-2.9a8.74,8.74,0,0,1-3.11,2.8,8.77,8.77,0,0,1-4.08.92,9,9,0,0,1-7.27-3.16q-2.65-3.16-2.65-8.65a12.6,12.6,0,0,1,2.71-8.42,8.82,8.82,0,0,1,7.08-3.21,8.85,8.85,0,0,1,4.56,1.11,6.54,6.54,0,0,1,2.77,3.21v-3.56h5v20.43Zm-4.85-9.6a8,8,0,0,0-1.57-5.26,5.42,5.42,0,0,0-4.4-1.88,5.48,5.48,0,0,0-4.45,1.94,8.17,8.17,0,0,0-1.62,5.39,8.17,8.17,0,0,0,1.56,5.35,5.41,5.41,0,0,0,4.41,1.88,5.41,5.41,0,0,0,4.38-2A8.17,8.17,0,0,0-180.07,257.23Z" transform="translate(343.84 -228.31)"/><path class="cls-1" d="M-168.77,237a3,3,0,0,1,.93-2.18,3,3,0,0,1,2.22-.92,3,3,0,0,1,2.22.88,3,3,0,0,1,.88,2.22,3.06,3.06,0,0,1-.9,2.24,3,3,0,0,1-2.21.91,3,3,0,0,1-2.22-.93A3,3,0,0,1-168.77,237Zm0.67,31.2V246.41h5v21.78h-5Z" transform="translate(343.84 -228.31)"/><path class="cls-1" d="M-156,268.19V246.41h4.69V250a9.38,9.38,0,0,1,3.52-3.29,10.7,10.7,0,0,1,4.92-1,10.08,10.08,0,0,1,4.15.77,6,6,0,0,1,2.68,2.29,6.22,6.22,0,0,1,.83,2.09A23.26,23.26,0,0,1-135,255v13.21h-5V257q0-4.3-1-5.71t-3.71-1.41a7.23,7.23,0,0,0-3.11.64,5.16,5.16,0,0,0-2.15,1.81,5,5,0,0,0-.77,2,24.91,24.91,0,0,0-.22,3.92v9.93h-5Z" transform="translate(343.84 -228.31)"/><path class="cls-1" d="M-105.7,268.19l-3.81-8.66h-13.33l-3.91,8.66h-5.74l16.29-35,16.27,35h-5.77ZM-120.81,255h9.37l-3.45-7.67q-0.3-.73-0.62-1.69t-0.64-2.13q-0.28,1.1-.59,2.06t-0.63,1.76Z" transform="translate(343.84 -228.31)"/><path class="cls-1" d="M-81.66,232.58h5v35.61h-5v-2.83a8.74,8.74,0,0,1-3.11,2.8,8.77,8.77,0,0,1-4.08.92,9,9,0,0,1-7.27-3.16q-2.65-3.16-2.65-8.65a12.6,12.6,0,0,1,2.71-8.42A8.82,8.82,0,0,1-89,245.65a8.85,8.85,0,0,1,4.56,1.11A6.54,6.54,0,0,1-81.66,250V232.58Zm0.14,24.65A8,8,0,0,0-83.1,252a5.42,5.42,0,0,0-4.4-1.88A5.48,5.48,0,0,0-91.94,252a8.17,8.17,0,0,0-1.62,5.39A8.17,8.17,0,0,0-92,262.77a5.41,5.41,0,0,0,4.41,1.88,5.42,5.42,0,0,0,4.39-2A8.2,8.2,0,0,0-81.52,257.23Z" transform="translate(343.84 -228.31)"/><path class="cls-1" d="M-72.29,264.24l4.14-2.25a4.29,4.29,0,0,0,1.7,2.48,5.53,5.53,0,0,0,3.19.85,4.08,4.08,0,0,0,2.63-.77,2.56,2.56,0,0,0,1-2.1q0-1.77-3.4-3-1.15-.41-1.77-0.69a14.24,14.24,0,0,1-4.88-2.94,5.13,5.13,0,0,1-1.39-3.63,5.76,5.76,0,0,1,2.29-4.73,9.46,9.46,0,0,1,6.05-1.81,9.34,9.34,0,0,1,4.33.93,5.73,5.73,0,0,1,2.63,2.65l-3.54,2.44A3.26,3.26,0,0,0-60.72,250a4.19,4.19,0,0,0-2.26-.61,3.6,3.6,0,0,0-2.29.68,2.18,2.18,0,0,0-.86,1.8q0,1.7,3.86,3.1,1.22,0.44,1.88.71a11,11,0,0,1,4.31,2.7,5.55,5.55,0,0,1,1.3,3.76,6.13,6.13,0,0,1-2.37,5.11,10.35,10.35,0,0,1-6.53,1.85A10.67,10.67,0,0,1-69,267.89,8.11,8.11,0,0,1-72.29,264.24Z" transform="translate(343.84 -228.31)"/><polygon class="cls-2" points="46.31 0 33.08 0 46.31 47.29 52.92 23.64 46.31 0"/><polygon class="cls-3" points="42.31 32.99 46.31 0 46.31 0 38.31 0 35.69 9.35 42.31 32.99"/><polygon class="cls-4" points="46.31 0 33.08 0 19.85 47.29 33.08 47.29 46.31 0"/><polygon class="cls-2" points="33.08 47.29 19.85 47.29 6.62 0 19.85 0 33.08 47.29"/><polygon class="cls-3" points="15.85 32.99 19.85 0 19.85 0 11.85 0 9.23 9.35 15.85 32.99"/><polygon class="cls-4" points="6.62 0 0 23.64 6.62 47.29 19.85 0 6.62 0"/></svg>